<svg version="1.1" id="Layer_1" xmlns="http://www.w3.org/2000/svg" xmlns:xlink="http://www.w3.org/1999/xlink" x="0px" y="0px"
	 width="100%" viewBox="0 0 512 512" enable-background="new 0 0 512 512" xml:space="preserve">
<path fill="#010101" opacity="1.000000" stroke="none" 
	d="
M285.000000,513.000000 
	C191.356064,513.000000 98.212105,512.979431 5.068284,513.085266 
	C1.794654,513.088989 0.894741,512.634033 0.897244,509.070068 
	C1.015188,341.111115 1.016870,173.152084 0.891658,5.193176 
	C0.888856,1.433910 1.851358,0.913638 5.304879,0.915623 
	C173.097229,1.012100 340.889618,1.011550 508.681976,0.918637 
	C512.099915,0.916745 513.113892,1.384340 513.110962,5.180007 
	C512.982544,173.138931 512.985107,341.097961 513.101257,509.056915 
	C513.103699,512.593994 512.246887,513.092834 508.944855,513.087769 
	C434.463348,512.973572 359.981659,513.000000 285.000000,513.000000 
z"/>
<path fill="#C1E9FA" opacity="1.000000" stroke="none" 
	d="
M243.726135,234.845581 
	C255.419647,241.879105 263.235748,250.778976 266.456879,264.512299 
	C272.498108,290.269073 299.756042,305.545776 326.968781,299.508636 
	C331.663788,298.467041 332.700165,299.433990 332.327637,303.939606 
	C331.958344,308.406708 332.145569,312.931580 332.278748,317.425507 
	C332.438629,322.820465 335.498779,326.086792 340.017517,325.964569 
	C344.349487,325.847382 347.145782,322.690887 347.214996,317.516693 
	C347.310791,310.354797 347.261353,303.190613 347.231873,296.027588 
	C347.224792,294.308380 347.206360,292.804993 349.244293,291.998718 
	C357.732483,288.640472 365.991974,284.742767 374.731689,281.971039 
	C382.289917,279.573975 388.019043,281.964630 393.001678,287.526062 
	C399.038300,294.263977 402.431824,302.394073 404.908112,310.878418 
	C408.816345,324.268860 412.209412,337.809509 416.108093,351.202911 
	C417.445648,355.798004 419.482361,360.216705 421.481689,364.587006 
	C427.908264,378.634460 440.068695,385.403656 454.075928,389.466064 
	C457.324554,390.408234 458.165863,391.750671 458.074036,394.921875 
	C457.847626,402.744843 457.845917,410.583252 458.075287,418.406006 
	C458.167023,421.533325 456.903259,422.864197 454.129669,423.697601 
	C419.771454,434.021423 385.424225,444.382019 351.098724,454.813995 
	C348.070129,455.734436 347.135956,455.314758 347.165649,451.870667 
	C347.330841,432.714783 347.247955,413.556732 347.239197,394.399445 
	C347.238434,392.735229 347.311707,391.050171 347.086426,389.411102 
	C346.562012,385.595795 344.124817,383.447144 340.439636,383.108429 
	C336.706848,382.765320 333.956085,384.581787 332.851013,388.223206 
	C332.332550,389.931549 332.274597,391.826263 332.270935,393.637054 
	C332.232300,412.794250 332.109497,431.953339 332.350220,451.107574 
	C332.405212,455.483948 331.103333,455.656067 327.574371,454.451782 
	C321.290527,452.307312 314.878479,450.538605 308.250549,448.368988 
	C294.417084,437.675812 283.208282,424.974640 273.424713,411.055298 
	C254.355972,383.925842 242.208847,353.936768 237.254898,321.092133 
	C236.981796,319.281555 236.535156,317.488770 237.301666,315.326111 
	C237.956940,314.296844 238.652725,313.841339 239.325073,313.347382 
	C245.118530,309.090942 245.143356,304.791168 239.364487,300.742920 
	C237.720566,299.591339 236.004990,298.552551 234.965759,296.259827 
	C233.608307,284.015961 235.522110,272.317535 236.811111,260.603882 
	C237.556854,253.827194 238.916122,247.121643 240.541641,240.487930 
	C241.049606,238.414978 241.246185,236.163681 243.726135,234.845581 
z"/>
<path fill="#90D3F0" opacity="1.000000" stroke="none" 
	d="
M237.822449,314.506409 
	C239.663452,332.787506 244.308060,350.066772 250.981308,366.723206 
	C261.913727,394.010437 277.554260,418.272980 299.019501,438.591064 
	C302.033875,441.444275 304.840210,444.517242 307.861938,447.806885 
	C297.587982,445.821014 287.595978,442.139832 277.375793,439.244812 
	C275.648987,438.755676 275.449402,437.933624 275.694733,436.357391 
	C277.953369,421.843079 271.596466,410.865753 261.248047,401.577301 
	C254.925613,395.902435 248.442398,390.400482 242.254135,384.583923 
	C234.093628,376.913544 228.238800,367.730804 225.216797,356.857361 
	C220.272110,339.065918 207.583420,330.668213 190.190018,327.988098 
	C188.380096,327.709229 186.554962,327.336792 184.738068,327.343079 
	C182.368195,327.351318 181.791855,326.402191 181.667847,324.078491 
	C181.366287,318.428040 178.466034,315.272339 174.170471,315.273712 
	C169.668030,315.275146 167.084442,318.407410 166.804413,324.587463 
	C166.709839,326.674683 166.491943,327.877106 163.928284,328.140045 
	C152.320480,329.330475 141.030869,332.358887 129.560013,334.359192 
	C127.774559,334.670532 125.903343,334.863129 124.112953,334.688477 
	C121.191628,334.403564 118.915703,334.022461 120.245689,329.599182 
	C121.895004,324.113892 116.435280,319.372803 110.810005,321.341644 
	C108.000191,322.325104 106.952812,321.546722 105.601456,319.587616 
	C104.184738,317.533722 102.409721,315.718018 101.075127,313.617828 
	C90.825752,297.488831 75.603317,294.015472 57.984333,296.533417 
	C57.492451,296.603699 56.995804,296.640686 56.503735,296.692932 
	C55.672291,295.271698 56.015762,293.739380 56.014477,292.271362 
	C55.992886,267.606079 56.106297,242.939865 55.894382,218.276398 
	C55.858707,214.124420 57.297543,212.501404 61.107380,211.367432 
	C94.720215,201.362701 128.304718,191.259781 161.821411,180.938477 
	C166.481491,179.503433 166.879654,180.864471 166.841568,184.993347 
	C166.654053,205.323807 166.753250,225.656952 166.762482,245.989151 
	C166.763229,247.653992 166.676147,249.345444 166.929276,250.978134 
	C167.477127,254.511917 169.630981,256.651855 173.192108,257.068237 
	C176.934631,257.505859 179.644485,255.952896 181.096405,252.385529 
	C181.875717,250.470779 181.752899,248.463394 181.752975,246.466660 
	C181.753723,225.634491 181.799133,204.802109 181.705048,183.970367 
	C181.690689,180.792236 181.947952,179.518692 185.740509,180.771683 
	C196.468399,184.315903 207.320679,187.497192 218.189240,190.592194 
	C220.776703,191.329010 222.074783,192.369675 222.465546,195.135544 
	C222.951508,198.575180 224.042267,201.927902 224.844696,205.324585 
	C227.670593,217.286652 233.759216,227.100861 244.019135,234.577515 
	C241.022995,241.357285 240.356689,248.497665 239.225006,255.420273 
	C237.037231,268.802948 235.802475,282.318726 236.046783,296.377991 
	C234.252304,297.983246 232.896301,296.696686 231.517914,295.937622 
	C229.199509,294.660828 226.895721,293.362122 224.458939,292.323486 
	C221.126907,290.903320 218.167709,291.377960 216.292664,294.627411 
	C214.379715,297.942688 215.793518,300.646606 218.524994,302.847107 
	C219.821472,303.891510 221.328506,304.586609 222.768646,305.397217 
	C227.796829,308.227203 232.870651,310.981567 237.822449,314.506409 
z"/>
<path fill="#FDE8B6" opacity="1.000000" stroke="none" 
	d="
M49.071785,395.587769 
	C42.136429,397.970978 41.015484,399.446869 41.005447,406.212311 
	C40.989624,416.877014 40.984257,427.541779 41.005386,438.206482 
	C41.034836,453.066986 51.400692,460.813202 65.601219,456.542389 
	C97.581215,446.924438 129.549423,437.267242 161.524673,427.633514 
	C163.094376,427.160583 164.685501,426.758789 166.754074,426.189789 
	C166.754074,434.505615 166.703247,442.447540 166.791733,450.387878 
	C166.812454,452.246765 166.134186,452.843475 164.369507,453.330017 
	C124.803864,464.239258 85.754433,476.887024 46.377983,488.435852 
	C29.752090,493.312134 16.018038,483.092377 16.012367,465.770538 
	C15.983570,377.786591 15.989553,289.802612 16.009531,201.818665 
	C16.012390,189.223953 21.770172,181.580383 33.816101,177.936203 
	C75.480225,165.331848 117.146347,152.734100 158.812881,140.137695 
	C160.085190,139.753052 161.396820,139.484329 162.644302,139.034500 
	C165.738266,137.918808 167.025986,138.564972 166.837250,142.221054 
	C166.536972,148.037827 166.572418,153.889618 166.830032,159.710495 
	C166.971863,162.915283 165.967194,164.226746 162.793945,165.172104 
	C127.604019,175.655960 92.474800,186.343491 57.323494,196.957169 
	C44.556606,200.812027 41.001812,205.559525 41.001553,218.923737 
	C41.000591,268.081451 41.026291,317.239166 40.963810,366.396790 
	C40.957325,371.500854 42.344746,375.240997 48.301521,376.247650 
	C52.322174,382.509064 51.092442,388.878174 49.071785,395.587769 
z"/>
<path fill="#FB796D" opacity="1.000000" stroke="none" 
	d="
M341.651642,138.299377 
	C334.601440,122.647446 330.694214,106.627701 329.326630,89.874405 
	C326.505127,55.309078 351.658539,22.062407 384.767365,16.992315 
	C421.025604,11.439944 453.922729,33.724705 461.528595,69.401451 
	C465.162659,86.447670 462.157532,103.205452 457.340942,119.616516 
	C447.892365,151.809586 429.036591,178.040100 404.979553,200.836594 
	C399.419434,206.105408 392.656799,206.042862 387.105164,200.756485 
	C368.253357,182.805618 352.576752,162.506775 341.651642,138.299377 
z"/>
<path fill="#FEF7E5" opacity="1.000000" stroke="none" 
	d="
M347.730347,475.203552 
	C346.140503,471.005463 349.327911,470.888397 351.538666,470.220551 
	C386.197906,459.750000 420.872711,449.331024 455.541840,438.893188 
	C460.482971,437.405518 465.496704,436.075897 468.942047,431.735565 
	C471.750977,428.196930 473.011658,424.206177 473.010651,419.710541 
	C472.994171,345.066589 473.029114,270.422577 472.970428,195.778656 
	C472.960297,182.904129 462.265259,175.040726 449.842407,178.473846 
	C447.964966,178.992691 446.092560,179.529694 443.221039,180.339310 
	C450.452179,170.181107 456.501678,160.490738 461.566650,150.220627 
	C462.997406,147.319580 465.981689,147.555161 468.414307,146.860580 
	C484.186005,142.357254 497.963287,152.592331 497.973450,168.990417 
	C498.028259,257.463470 498.009949,345.936584 497.986908,434.409668 
	C497.983948,445.715057 492.138184,453.799622 481.322113,457.100861 
	C447.487183,467.427826 413.612000,477.622894 379.372009,487.863220 
	C370.448059,487.466370 363.351105,482.835266 355.717438,479.815338 
	C352.985992,478.734802 350.169739,477.599670 347.730347,475.203552 
z"/>
<path fill="#55D37A" opacity="1.000000" stroke="none" 
	d="
M49.051529,396.052795 
	C48.678463,389.686676 48.659641,383.462555 48.647835,376.791626 
	C53.977673,375.374329 56.077106,372.098663 56.041634,366.798126 
	C55.929070,349.978058 56.107567,333.155457 55.909843,316.336945 
	C55.870346,312.977417 56.883327,311.642212 60.121407,311.239014 
	C71.711082,309.795746 82.119286,311.075439 88.855492,322.305328 
	C90.472298,325.000671 92.459923,327.539154 94.616058,329.830780 
	C98.294983,333.740906 101.053642,337.257324 97.470642,343.095245 
	C95.506836,346.294952 97.373474,349.986847 100.908340,351.921997 
	C104.489540,353.882477 108.082870,353.185272 110.149040,349.854645 
	C111.919998,346.999817 113.430214,347.033386 116.106522,348.133118 
	C122.550484,350.780975 129.159286,349.889221 135.758911,348.568695 
	C144.724686,346.774750 153.720352,345.129211 162.680618,343.308929 
	C165.580032,342.719940 166.865021,343.168060 166.840408,346.613647 
	C166.696411,366.764313 166.741699,386.916626 166.807037,407.068115 
	C166.814667,409.420105 166.118210,410.587067 163.720718,411.303802 
	C129.325638,421.586700 94.955269,431.952606 60.601696,442.373505 
	C56.573372,443.595490 55.975830,441.561371 55.986877,438.350861 
	C56.024120,427.525726 55.891235,416.698730 56.048782,405.875732 
	C56.121170,400.903076 54.468685,397.470001 49.051529,396.052795 
z"/>
<path fill="#8BDF9E" opacity="1.000000" stroke="none" 
	d="
M457.999969,240.000000 
	C457.999969,285.136444 457.999969,329.772858 457.999969,374.868134 
	C448.007751,372.027191 439.633789,367.780823 434.923035,358.127899 
	C429.543823,347.105286 427.126221,335.190552 424.037140,323.474121 
	C421.281921,313.024048 418.617554,302.553497 414.008026,292.710236 
	C410.287933,284.766327 405.491699,277.615295 398.382751,272.312683 
	C396.515228,270.919678 396.042755,269.379211 396.080444,267.244446 
	C396.136322,264.083740 396.132233,260.899139 395.809692,257.760040 
	C395.339355,253.182953 391.925018,250.156342 387.896576,250.388794 
	C383.726044,250.629456 380.383362,253.910110 381.067383,258.526459 
	C381.954498,264.513092 379.850494,266.364227 374.089966,267.030182 
	C365.784729,267.990326 358.239136,271.869324 350.622742,275.173859 
	C347.932281,276.341156 347.179626,275.923859 347.197876,272.968231 
	C347.290466,257.976685 347.302887,242.983719 347.177887,227.992645 
	C347.158173,225.625366 348.183075,224.781738 350.134552,224.204407 
	C359.536896,221.422897 368.955170,218.687469 378.293671,215.703766 
	C380.343292,215.048904 381.722198,215.639801 383.396301,216.466492 
	C394.513184,221.956116 406.730194,220.873688 415.097412,211.663757 
	C422.808289,203.176254 431.989807,198.721252 442.678864,196.219681 
	C445.748535,195.501266 448.741241,194.455856 451.772949,193.572983 
	C457.297913,191.963989 457.982330,192.427734 457.992004,198.021820 
	C458.015961,211.847839 457.999939,225.673935 457.999969,240.000000 
z"/>
<path fill="#8BDF9E" opacity="1.000000" stroke="none" 
	d="
M254.778564,202.349930 
	C263.637909,204.921707 265.827515,204.526489 270.066803,199.121307 
	C277.122498,197.507172 282.808197,200.913406 288.923157,203.750580 
	C289.066864,210.519623 290.298859,212.287582 296.390625,214.163956 
	C307.020264,217.438034 317.635162,220.768845 328.330139,223.816467 
	C331.193817,224.632507 332.349060,225.696930 332.317139,228.854782 
	C332.149078,245.492874 332.146576,262.134552 332.320709,278.772491 
	C332.353394,281.896545 331.172699,283.088684 328.410767,283.893616 
	C308.020874,289.835815 283.882751,280.948914 279.572571,256.196472 
	C277.738892,245.665833 271.776093,237.246338 263.462372,230.545059 
	C258.674194,226.685547 253.869293,222.846710 248.892944,218.724426 
	C248.446121,212.371384 251.659714,207.558945 254.778564,202.349930 
z"/>
<path fill="#FDE8B5" opacity="1.000000" stroke="none" 
	d="
M187.753540,454.088501 
	C182.715546,454.000946 181.313293,451.800934 181.631317,447.182678 
	C182.098022,440.405212 181.751556,433.571777 181.751556,426.135834 
	C193.343903,429.592316 204.444534,432.869385 215.525314,436.212158 
	C252.878082,447.480652 290.208557,458.823578 327.596405,469.974213 
	C331.229614,471.057800 332.615479,472.578247 332.345245,476.447174 
	C331.963226,481.915527 332.070557,487.438263 332.310883,492.922791 
	C332.471222,496.580841 331.691376,497.473755 327.888123,496.302063 
	C302.818939,488.579132 277.677246,481.091522 252.557846,473.531586 
	C231.095428,467.072266 209.631241,460.618744 187.753540,454.088501 
z"/>
<path fill="#54D27A" opacity="1.000000" stroke="none" 
	d="
M181.770462,379.999939 
	C181.770676,368.343658 181.847046,357.186493 181.720856,346.031647 
	C181.686829,343.023010 182.353668,342.042664 185.667816,342.399872 
	C199.056885,343.842957 208.267029,349.670197 211.839432,363.606262 
	C215.555145,378.101562 224.852051,389.260590 235.753143,399.130310 
	C241.921295,404.714874 248.301208,410.078186 254.268295,415.868256 
	C259.221588,420.674652 262.276794,426.458740 260.604980,434.165405 
	C245.848541,429.732361 231.228821,425.352722 216.617050,420.946655 
	C206.274826,417.828033 195.976852,414.555603 185.585632,411.611176 
	C182.661804,410.782684 181.621948,409.548096 181.697037,406.474030 
	C181.908432,397.820557 181.770660,389.158600 181.770462,379.999939 
z"/>
<path fill="#FDE8B5" opacity="1.000000" stroke="none" 
	d="
M263.285645,188.025909 
	C246.388611,183.256683 229.840576,178.392776 213.307800,173.477509 
	C204.080658,170.734238 194.913834,167.780670 185.644867,165.189987 
	C182.793427,164.393021 181.509018,163.367950 181.663925,160.167953 
	C181.953308,154.189514 182.032578,148.169113 181.656586,142.200348 
	C181.357330,137.449951 183.921494,138.489258 186.484421,139.255386 
	C202.067795,143.913849 217.637924,148.616684 233.208984,153.316315 
	C247.347656,157.583633 261.481873,161.865692 275.903137,166.359131 
	C276.742798,167.546982 276.660706,168.610504 276.070831,169.411545 
	C271.660675,175.400146 268.513702,182.235901 263.285645,188.025909 
z"/>
<path fill="#FDF6E4" opacity="1.000000" stroke="none" 
	d="
M263.177307,188.395233 
	C266.557861,180.747696 271.499939,174.171295 276.053497,166.923157 
	C291.762878,171.191360 307.328857,175.835022 322.915314,180.408966 
	C332.234833,183.143829 332.249329,183.094772 332.249237,192.781647 
	C332.249176,197.271484 332.148804,201.764404 332.286316,206.250015 
	C332.368286,208.924347 331.526184,209.238831 329.081665,208.469955 
	C319.435364,205.435959 309.697021,202.695190 300.042938,199.684998 
	C295.404816,198.238815 291.902618,199.148285 289.381805,203.874847 
	C283.091797,202.362976 277.061188,200.617233 270.649078,198.843201 
	C270.481537,192.240097 269.486572,190.761932 263.177307,188.395233 
z"/>
<path fill="#F6E2B1" opacity="1.000000" stroke="none" 
	d="
M347.390442,475.351929 
	C357.921021,478.846985 367.733887,484.255737 378.728577,487.623596 
	C369.646637,490.737762 360.281677,493.555725 350.968750,496.536346 
	C348.146027,497.439758 347.061798,496.961639 347.168884,493.771790 
	C347.369598,487.791321 347.247314,481.800018 347.390442,475.351929 
z"/>
<path fill="#F3ECDB" opacity="1.000000" stroke="none" 
	d="
M349.606262,208.803787 
	C347.046661,209.358185 347.215668,207.873734 347.215515,206.532288 
	C347.214691,199.395599 347.214294,192.258926 347.214844,185.122238 
	C347.214935,183.958801 347.101807,182.722351 348.538025,182.238113 
	C350.151154,181.694229 350.942657,182.787216 351.765564,183.878677 
	C356.660706,190.371628 362.020416,196.475525 368.104156,203.050064 
	C361.781097,205.021118 355.899292,206.854630 349.606262,208.803787 
z"/>
<path fill="#53CE78" opacity="1.000000" stroke="none" 
	d="
M254.765213,201.884659 
	C253.807785,207.591263 250.901825,212.456894 248.890167,218.092194 
	C241.757065,213.255005 240.614548,205.202759 237.861008,196.539032 
	C243.960342,198.426208 249.206223,200.049332 254.765213,201.884659 
z"/>
<path fill="#050606" opacity="1.000000" stroke="none" 
	d="
M316.697266,346.374603 
	C319.082520,347.243896 321.170837,347.824371 323.149719,348.663025 
	C327.140747,350.354431 329.141357,354.262756 327.726410,357.933533 
	C326.228180,361.820343 323.178741,363.863098 319.052277,362.878906 
	C311.927948,361.179626 305.135223,358.385590 298.823303,354.707062 
	C295.268280,352.635254 294.166840,349.003296 296.158936,345.178253 
	C298.085571,341.478943 301.354340,340.042664 305.375519,341.526581 
	C309.101715,342.901642 312.697540,344.629883 316.697266,346.374603 
z"/>
<path fill="#040506" opacity="1.000000" stroke="none" 
	d="
M364.144958,336.114197 
	C368.251770,336.334015 370.859314,338.177032 371.832916,341.778625 
	C372.758575,345.202972 371.172363,347.810455 368.645844,350.110352 
	C363.815704,354.507050 358.469635,358.100677 352.543243,360.794830 
	C348.112488,362.809143 343.836639,361.360535 342.008575,357.445435 
	C340.205566,353.584045 341.412415,349.300385 345.823486,347.523071 
	C352.569824,344.804932 357.018433,338.700684 364.144958,336.114197 
z"/>
<path fill="#040505" opacity="1.000000" stroke="none" 
	d="
M264.845276,334.142944 
	C262.089142,332.248108 259.492554,330.717316 257.227692,328.795593 
	C254.007889,326.063568 253.444824,322.549469 255.750916,319.007812 
	C258.095917,315.406433 261.834930,314.519836 265.339417,316.574493 
	C271.331848,320.087708 277.106323,324.030975 282.666809,328.201019 
	C286.050751,330.738861 286.281769,334.547394 283.968536,337.997498 
	C281.599579,341.530731 277.995972,342.193939 274.330872,340.265930 
	C271.119751,338.576721 268.200928,336.331848 264.845276,334.142944 
z"/>
<path fill="#030405" opacity="1.000000" stroke="none" 
	d="
M238.281906,314.659241 
	C230.219650,312.162415 223.697464,307.224854 216.735611,303.144562 
	C213.331543,301.149445 212.852783,297.386719 214.749237,293.910034 
	C216.760880,290.222290 220.178070,288.861359 224.039200,290.561829 
	C227.958710,292.288086 231.596848,294.653107 235.700226,296.786682 
	C237.520905,297.845184 238.934875,298.971008 240.491592,299.841614 
	C243.805359,301.695038 245.705887,304.279755 245.141205,308.211975 
	C244.601425,311.970703 242.160812,313.838226 238.281906,314.659241 
z"/>
<path fill="#040506" opacity="1.000000" stroke="none" 
	d="
M391.895477,307.782532 
	C390.517090,312.293579 389.343079,316.440460 387.884888,320.484833 
	C385.926239,325.917206 382.022095,328.187347 377.745697,326.646759 
	C373.365021,325.068573 371.990723,320.977692 373.743103,315.487732 
	C375.301666,310.604950 376.690399,305.664368 378.023621,300.714172 
	C379.438446,295.460999 382.684753,293.009766 387.294373,293.925812 
	C391.624115,294.786255 393.808105,298.766968 392.788513,303.992462 
	C392.566711,305.128967 392.247589,306.246490 391.895477,307.782532 
z"/>
<path fill="#020303" opacity="1.000000" stroke="none" 
	d="
M141.279816,268.091675 
	C131.151932,276.832062 120.101547,276.905396 108.813713,272.241364 
	C98.193687,267.853241 92.968674,259.296509 93.050102,247.926834 
	C93.138458,235.591949 98.774605,226.033890 109.850548,220.580261 
	C123.401451,213.907990 137.713821,223.643127 136.964035,238.775406 
	C136.770065,242.690170 137.432571,245.573410 140.269547,248.533524 
	C145.350708,253.835266 145.531860,261.200195 141.279816,268.091675 
z"/>
<path fill="#030506" opacity="1.000000" stroke="none" 
	d="
M147.826263,287.829895 
	C152.072296,288.415985 154.139969,290.879974 154.558319,294.484833 
	C154.961395,297.958344 153.116791,300.478790 150.056610,302.097351 
	C145.205429,304.663086 140.856842,307.939606 136.575775,311.353455 
	C132.742233,314.410370 128.201553,314.002380 125.531769,310.679230 
	C122.944588,307.458862 123.267227,303.019867 126.853531,300.085663 
	C133.080551,294.990906 139.054749,289.353760 147.826263,287.829895 
z"/>
<path fill="#030405" opacity="1.000000" stroke="none" 
	d="
M176.384979,280.004486 
	C182.672775,279.890198 188.495895,279.865021 194.275574,280.882050 
	C199.229843,281.753784 201.882843,284.936615 201.276031,289.428162 
	C200.693222,293.742065 197.041306,296.444000 192.118530,295.699554 
	C186.971466,294.921234 181.829697,294.978577 176.669037,295.008575 
	C171.054398,295.041229 167.717560,292.615143 167.304199,288.207123 
	C166.886627,283.754272 170.081772,280.719269 176.384979,280.004486 
z"/>
<path fill="#F7EC7F" opacity="1.000000" stroke="none" 
	d="
M411.338654,46.433296 
	C418.588470,48.278954 423.030670,53.435631 428.084717,58.396461 
	C426.154114,63.606606 426.904022,68.420128 428.430389,73.578392 
	C433.639221,91.181084 423.921600,109.243134 406.529633,115.037148 
	C389.418884,120.737488 370.689850,111.600227 364.279938,94.425011 
	C355.953125,72.113449 373.906525,47.745678 397.682739,49.283188 
	C402.476105,49.593151 406.968689,49.566906 411.338654,46.433296 
z"/>
<path fill="#040302" opacity="1.000000" stroke="none" 
	d="
M411.769348,46.021271 
	C409.187073,51.258476 404.996429,51.375042 400.196136,50.809055 
	C386.916565,49.243301 376.251648,54.121014 368.975464,65.253891 
	C361.804932,76.225174 361.680695,87.888176 368.145905,99.242104 
	C376.518677,113.946114 395.014923,119.423355 410.195038,112.077187 
	C425.453674,104.693024 432.439331,87.110664 426.281403,71.186302 
	C424.550110,66.709152 423.450897,62.571278 428.159241,58.827484 
	C435.063690,57.204842 437.358215,58.414253 439.989410,64.714531 
	C447.373993,82.396233 443.109375,103.256523 429.350189,116.756325 
	C415.583954,130.263046 394.773682,134.085876 377.106750,126.353416 
	C359.478851,118.638046 348.356110,101.247772 348.733582,81.992119 
	C349.305328,52.821621 375.219269,31.363043 404.190216,36.070087 
	C409.922852,37.001495 411.954620,39.561699 411.769348,46.021271 
z"/>
<path fill="#030604" opacity="1.000000" stroke="none" 
	d="
M96.616966,365.430054 
	C100.622040,366.445770 102.997566,368.795593 102.883026,372.509735 
	C102.752510,376.741516 102.604568,381.288116 98.418541,384.026276 
	C94.728783,386.439819 89.894852,384.977783 87.876472,380.956177 
	C84.722420,374.671753 89.177910,366.362305 96.616966,365.430054 
z"/>
<path fill="#53CF78" opacity="1.000000" stroke="none" 
	d="
M108.016312,247.139099 
	C108.430771,241.975235 110.626785,238.205521 114.282326,235.226257 
	C116.123154,233.725967 118.233253,233.346939 120.369789,234.221100 
	C122.561676,235.117920 122.211693,237.248672 121.983887,239.007004 
	C121.000809,246.594681 122.703064,253.210938 129.083527,258.193146 
	C118.701904,263.235809 108.812431,258.015198 108.016312,247.139099 
z"/>
</svg>